<svg width="22px" height="22px" viewBox="0 0 22 22" version="1.1" xmlns="http://www.w3.org/2000/svg" xmlns:xlink="http://www.w3.org/1999/xlink">
    <!-- Generator: Sketch 50.2 (55047) - http://www.bohemiancoding.com/sketch -->
    <title>play_film</title>
    <desc>Created with Sketch.</desc>
    <defs></defs>
    <g id="Media-Contacts-Donate" stroke="none" stroke-width="1" fill="none" fill-rule="evenodd">
        <g id="Media" transform="translate(-430.000000, -643.000000)" fill="#004C98">
            <g id="Media-Gallery" transform="translate(130.000000, 300.000000)">
                <g id="VideoCard-Copy" transform="translate(0.000000, 320.000000)">
                    <path d="M309,31.407 L313.074,34 L309,36.593 L309,31.407 Z M308.5,38 C308.618,38 308.722,37.953 308.8075,37.885 L308.8125,37.8905 L314.3125,34.3905 L314.3075,34.385 C314.422,34.293 314.5,34.1575 314.5,34 C314.5,33.8425 314.422,33.707 314.3075,33.6155 L314.3125,33.61 L308.8125,30.11 L308.8075,30.115 C308.722,30.0475 308.618,30 308.5,30 C308.2235,30 308,30.224 308,30.5 L308,37.5 C308,37.7765 308.2235,38 308.5,38 Z M319,43 L320,43 L320,42 L319,42 L319,43 Z M319,39 L320,39 L320,38 L319,38 L319,39 Z M319,37 L320,37 L320,36 L319,36 L319,37 Z M319,41 L320,41 L320,40 L319,40 L319,41 Z M319,26 L320,26 L320,25 L319,25 L319,26 Z M321,33.5 L318,33.5 L318,24 L320,24 C320.552,24 321,24.448 321,25 L321,33.5 Z M321,43 C321,43.552 320.552,44 320,44 L318,44 L318,34.5 L321,34.5 L321,43 Z M305,44 L317,44 L317,24 L305,24 L305,44 Z M304,33.5 L301,33.5 L301,25 C301,24.448 301.448,24 302,24 L304,24 L304,33.5 Z M304,44 L302,44 C301.448,44 301,43.552 301,43 L301,34.5 L304,34.5 L304,44 Z M320,23 L302,23 C300.8955,23 300,23.8955 300,25 L300,43 C300,44.1045 300.8955,45 302,45 L320,45 C321.1045,45 322,44.1045 322,43 L322,25 C322,23.8955 321.1045,23 320,23 Z M319,32 L320,32 L320,31 L319,31 L319,32 Z M319,30 L320,30 L320,29 L319,29 L319,30 Z M319,28 L320,28 L320,27 L319,27 L319,28 Z M302,26 L303,26 L303,25 L302,25 L302,26 Z M302,32 L303,32 L303,31 L302,31 L302,32 Z M302,41 L303,41 L303,40 L302,40 L302,41 Z M302,37 L303,37 L303,36 L302,36 L302,37 Z M302,39 L303,39 L303,38 L302,38 L302,39 Z M302,43 L303,43 L303,42 L302,42 L302,43 Z M302,30 L303,30 L303,29 L302,29 L302,30 Z M302,28 L303,28 L303,27 L302,27 L302,28 Z" id="play_film"></path>
                </g>
            </g>
        </g>
    </g>
</svg>